<svg width="1024" height="1024" viewBox="0 0 1024 1024" fill="none" xmlns="http://www.w3.org/2000/svg">
<mask id="path-1-inside-1_1_117" fill="white">
<path d="M352 149H672V720C672 737.673 657.673 752 640 752H384C366.327 752 352 737.673 352 720V149Z"/>
</mask>
<path d="M352 149H672V720C672 737.673 657.673 752 640 752H384C366.327 752 352 737.673 352 720V149Z" fill="url(#paint0_linear_1_117)"/>
<path d="M352 149H672V720C672 737.673 657.673 752 640 752H384C366.327 752 352 737.673 352 720V149Z" fill="black" fill-opacity="0.2"/>
<path d="M352 149H672V720C672 737.673 657.673 752 640 752H384C366.327 752 352 737.673 352 720V149Z" fill="black" fill-opacity="0.2"/>
<path d="M352 149H672V720C672 737.673 657.673 752 640 752H384C366.327 752 352 737.673 352 720V149Z" fill="black" fill-opacity="0.2"/>
<path d="M352 149H672H352M673 720C673 738.225 658.225 753 640 753H384C365.775 753 351 738.225 351 720H353C353 737.121 366.879 751 384 751H640C657.121 751 671 737.121 671 720H673ZM384 753C365.775 753 351 738.225 351 720V149H353V720C353 737.121 366.879 751 384 751V753ZM673 149V720C673 738.225 658.225 753 640 753V751C657.121 751 671 737.121 671 720V149H673Z" fill="#D9D9D9" mask="url(#path-1-inside-1_1_117)"/>
<defs>
<linearGradient id="paint0_linear_1_117" x1="502.805" y1="22.2469" x2="793.817" y2="613.227" gradientUnits="userSpaceOnUse">
<stop stop-color="#000F38"/>
<stop offset="0.615385" stop-color="#3E4B5C"/>
<stop offset="1" stop-color="#637183"/>
</linearGradient>
</defs>
</svg>
