<svg width="1024" height="1024" viewBox="0 0 1024 1024" fill="none" xmlns="http://www.w3.org/2000/svg">
<mask id="path-1-inside-1_1_118" fill="white">
<path d="M352 149H672V720C672 737.673 657.673 752 640 752H384C366.327 752 352 737.673 352 720V149Z"/>
</mask>
<path d="M352 149H672H352M673 720C673 738.225 658.225 753 640 753H384C365.775 753 351 738.225 351 720H353C353 737.121 366.879 751 384 751H640C657.121 751 671 737.121 671 720H673ZM384 753C365.775 753 351 738.225 351 720V149H353V720C353 737.121 366.879 751 384 751V753ZM673 149V720C673 738.225 658.225 753 640 753V751C657.121 751 671 737.121 671 720V149H673Z" fill="#D9D9D9" mask="url(#path-1-inside-1_1_118)"/>
<g clip-path="url(#clip0_1_118)">
<path d="M481.747 310H541.644C552.78 310 558.391 304.302 558.391 293.21V241.414H518.068C511.282 241.414 508.063 238.177 508.063 231.444V191.043H481.747C470.698 191.043 465 196.698 465 207.833V293.21C465 304.346 470.611 310 481.747 310ZM518.329 234.508H557.695C557.347 232.479 555.868 230.537 553.563 228.249L521.33 195.834C519.112 193.547 517.024 192.036 515.023 191.691V231.228C515.023 233.429 516.111 234.508 518.329 234.508Z" fill="white" fill-opacity="0.85"/>
</g>
<g clip-path="url(#clip1_1_118)">
<path d="M577.393 416.247V484.796C577.393 495.816 571.712 501.5 560.481 501.5H462.869C451.681 501.5 446 495.903 446 484.796V416.247C446 405.14 451.681 399.5 462.869 399.5H560.481C571.712 399.5 577.393 405.184 577.393 416.247ZM495.869 445.012C494.047 445.012 492.66 446.443 492.66 448.266C492.66 450.088 494.047 451.52 495.869 451.52H517.681C519.545 451.52 520.976 450.088 520.976 448.266C520.976 446.443 519.545 445.012 517.681 445.012H495.869ZM468.939 424.881L483.293 433.558L468.939 442.278C464.95 444.621 468.289 450.652 472.625 447.919L489.277 437.463C492.183 435.684 492.009 431.388 489.277 429.61L472.625 419.197C468.289 416.464 464.863 422.408 468.939 424.881Z" fill="white" fill-opacity="0.85"/>
</g>
<g clip-path="url(#clip2_1_118)">
<path d="M511.674 702.897C513.109 702.897 514.544 702.854 515.98 702.724L518.894 708.169C519.633 709.552 520.72 710.071 522.243 709.855C523.765 709.596 524.548 708.688 524.765 707.176L525.679 701.082C528.462 700.305 531.116 699.31 533.725 698.144L538.292 702.249C539.423 703.329 540.728 703.373 542.032 702.681C543.381 701.947 543.859 700.78 543.511 699.267L542.207 693.217C544.555 691.618 546.73 689.76 548.774 687.816L554.515 690.106C555.994 690.668 557.168 690.322 558.212 689.198C559.213 688.075 559.256 686.822 558.43 685.482L555.124 680.253C556.733 677.92 558.169 675.499 559.386 672.95L565.563 673.166C567.128 673.209 568.172 672.518 568.694 671.048C569.26 669.666 568.912 668.456 567.694 667.505L562.736 663.745C563.475 661.023 563.997 658.257 564.258 655.362L570.129 653.46C571.652 652.985 572.391 651.991 572.391 650.478C572.391 648.966 571.652 647.929 570.129 647.453L564.258 645.595C563.997 642.7 563.475 639.891 562.736 637.168L567.65 633.409C568.912 632.458 569.173 631.291 568.738 629.822C568.172 628.353 567.085 627.748 565.563 627.791L559.386 627.964C558.169 625.414 556.733 622.951 555.124 620.617L558.386 615.432C559.256 614.135 559.082 612.882 558.212 611.715C557.168 610.505 555.907 610.289 554.559 610.808L548.774 613.141C546.73 611.067 544.512 609.295 542.207 607.653L543.511 601.689C543.816 600.134 543.337 599.01 542.076 598.232C540.684 597.498 539.423 597.671 538.335 598.665L533.682 602.77C531.116 601.56 528.419 600.652 525.635 599.874L524.765 593.781C524.548 592.226 523.678 591.404 522.243 591.059C520.72 590.799 519.59 591.404 518.894 592.744L515.936 598.189C514.544 598.103 513.109 598.016 511.674 598.016C510.239 598.016 508.847 598.103 507.411 598.189L504.497 592.744C503.758 591.361 502.627 590.886 501.148 591.059C499.626 591.318 498.8 592.269 498.582 593.738L497.669 599.874C494.885 600.652 492.232 601.646 489.623 602.813L485.099 598.665C483.925 597.627 482.663 597.541 481.315 598.232C480.01 599.01 479.532 600.177 479.836 601.646L481.141 607.739C478.793 609.338 476.618 611.153 474.617 613.141L468.876 610.808C467.441 610.246 466.179 610.592 465.179 611.715C464.179 612.882 464.135 614.135 464.961 615.432L468.267 620.66C466.614 622.994 465.222 625.457 463.961 628.007L457.829 627.748C456.219 627.704 455.175 628.439 454.653 629.865C454.132 631.291 454.523 632.458 455.741 633.409L460.656 637.212C459.873 639.934 459.394 642.7 459.133 645.595L453.218 647.453C451.739 647.929 451 648.966 451 650.478C451 651.991 451.739 652.985 453.218 653.46L459.133 655.362C459.394 658.257 459.873 661.023 460.656 663.745L455.741 667.548C454.523 668.499 454.219 669.666 454.653 671.092C455.219 672.561 456.219 673.166 457.785 673.123L463.961 672.95C465.222 675.543 466.614 677.963 468.267 680.296L464.961 685.482C464.135 686.822 464.266 688.075 465.179 689.242C466.223 690.408 467.441 690.668 468.833 690.106L474.617 687.772C476.618 689.803 478.836 691.618 481.141 693.261L479.88 699.267C479.575 700.823 480.054 701.947 481.315 702.724C482.707 703.459 483.925 703.329 485.056 702.292L489.709 698.144C492.276 699.354 494.929 700.305 497.712 701.082L498.582 707.176C498.8 708.688 499.669 709.552 501.148 709.855C502.671 710.114 503.758 709.552 504.497 708.213L507.411 702.724C508.847 702.854 510.239 702.897 511.674 702.897ZM511.674 695.032C486.926 695.032 466.832 675.067 466.832 650.478C466.832 625.846 486.926 605.881 511.674 605.881C536.465 605.881 556.559 625.846 556.559 650.478C556.559 675.067 536.465 695.032 511.674 695.032ZM502.627 642.008L508.412 638.465L489.492 606.184L483.49 609.511L502.627 642.008ZM523.678 653.676H561.344V646.978H523.678V653.676ZM508.629 662.578L502.932 658.948L483.098 691.273L489.014 694.73L508.629 662.578ZM511.761 664.307C519.459 664.307 525.679 658.127 525.679 650.478C525.679 642.83 519.459 636.607 511.761 636.607C504.063 636.607 497.799 642.83 497.799 650.478C497.799 658.127 504.063 664.307 511.761 664.307ZM511.761 657.133C508.02 657.133 505.063 654.152 505.063 650.478C505.063 646.805 508.02 643.823 511.761 643.823C515.458 643.823 518.459 646.805 518.459 650.478C518.459 654.152 515.458 657.133 511.761 657.133Z" fill="white" fill-opacity="0.85"/>
</g>
<defs>
<clipPath id="clip0_1_118">
<rect width="94" height="119" fill="white" transform="translate(465 191)"/>
</clipPath>
<clipPath id="clip1_1_118">
<rect width="132" height="102" fill="white" transform="translate(446 399.5)"/>
</clipPath>
<clipPath id="clip2_1_118">
<rect width="122" height="119" fill="white" transform="translate(451 591)"/>
</clipPath>
</defs>
</svg>
